<?xml version="1.0" encoding="UTF-8"?>
<svg id="Layer_1" xmlns="http://www.w3.org/2000/svg" xmlns:xlink="http://www.w3.org/1999/xlink" viewBox="0 0 375.79 360.25">
  <defs>
    <style>
      .cls-1 {
        fill: #fff200;
        stroke: #f7941d;
        stroke-miterlimit: 10;
        stroke-width: 10px;
      }

      .cls-2 {
        fill: #231f20;
        font-family: Ravie, Ravie;
        font-size: 188.36px;
      }
    </style>
    <symbol id="Habit-Spark-Symbol" viewBox="0 0 375.79 360.25">
      <g>
        <polygon class="cls-1" points="289.27 194.73 360.29 145.74 282.47 143.83 310.39 109.84 271.36 120.01 287.22 92.45 255.5 106.62 270.21 51.51 214.78 96.49 190.85 16.18 170.02 75.31 152.54 47.99 150.48 82.7 129.15 59.08 132.8 93.35 83.62 61.48 113.74 139.7 15.26 137.28 63.49 174.16 44.94 179 70.83 189.14 48.56 199.09 80.13 205.76 35.45 242.02 112.75 237.89 76.18 341.7 137.62 299.32 136.29 321.82 154.73 299.36 156.82 319.01 172.38 291.98 192.26 343.62 207.99 284.66 289.42 346.93 265.08 265.26 300.35 279.08 280.52 248.07 304.32 253.1 282.4 228.82 337.35 225.88 289.27 194.73"/>
        <text class="cls-2" transform="translate(108.77 269.35)"><tspan x="0" y="0">H</tspan></text>
      </g>
    </symbol>
  </defs>
  <use width="375.79" height="360.25" xlink:href="#Habit-Spark-Symbol"/>
</svg>